<svg width="60" height="60" viewBox="0 0 60 60" fill="none" xmlns="http://www.w3.org/2000/svg">
<circle cx="30" cy="30" r="30" fill="white"/>
<path d="M30.155 48.55C27.735 48.55 25.9017 47.8533 24.655 46.46C23.4083 45.03 22.785 43.325 22.785 41.345V26.11H18.88L19.485 20.5H22.785V14.45L29.605 13.735V20.5H35.655V26.11H29.605V38.54C29.605 40.0067 29.6783 41.0333 29.825 41.62C30.0083 42.17 30.3567 42.5367 30.87 42.72C31.42 42.8667 32.3917 42.94 33.785 42.94H35.655L35.05 48.55H30.155Z" fill="#233539"/>
<path d="M37.7863 40.52H44.9363V48H37.7863V40.52Z" fill="#0BBEF2"/>
</svg>
