<svg width="68" height="16" viewBox="0 0 68 16" fill="none" xmlns="http://www.w3.org/2000/svg">
<path d="M5.304 15.24C4.248 15.24 3.448 14.936 2.904 14.328C2.36 13.704 2.088 12.96 2.088 12.096V5.448H0.384L0.648 3H2.088V0.36L5.064 0.0479994V3H7.704V5.448H5.064V10.872C5.064 11.512 5.096 11.96 5.16 12.216C5.24 12.456 5.392 12.616 5.616 12.696C5.856 12.76 6.28 12.792 6.888 12.792H7.704L7.44 15.24H5.304ZM17.826 15.24C16.434 15.24 15.242 14.96 14.25 14.4C13.274 13.824 12.538 13.064 12.042 12.12C11.562 11.16 11.322 10.096 11.322 8.928C11.322 7.808 11.554 6.784 12.018 5.856C12.482 4.928 13.154 4.192 14.034 3.648C14.914 3.088 15.962 2.808 17.178 2.808C18.298 2.808 19.242 3.04 20.01 3.504C20.794 3.968 21.378 4.592 21.762 5.376C22.162 6.16 22.362 7.04 22.362 8.016C22.362 8.496 22.298 9.04 22.17 9.648H14.418C14.578 10.704 14.994 11.496 15.666 12.024C16.338 12.536 17.146 12.792 18.09 12.792C19.386 12.792 20.586 12.464 21.69 11.808L21.834 14.328C21.322 14.6 20.722 14.824 20.034 15C19.362 15.16 18.626 15.24 17.826 15.24ZM19.338 7.632C19.338 7.008 19.162 6.456 18.81 5.976C18.458 5.496 17.914 5.256 17.178 5.256C16.442 5.256 15.85 5.472 15.402 5.904C14.954 6.336 14.65 6.912 14.49 7.632H19.338ZM29.3856 15.24C28.3936 15.24 27.5616 14.92 26.8896 14.28C26.2336 13.624 25.9056 12.744 25.9056 11.64C25.9056 10.6 26.2816 9.768 27.0336 9.144C27.7856 8.504 28.6736 8.056 29.6976 7.8C30.7216 7.528 31.7056 7.376 32.6496 7.344C32.6176 6.64 32.4336 6.136 32.0976 5.832C31.7776 5.528 31.2416 5.376 30.4896 5.376C29.9616 5.376 29.4416 5.448 28.9296 5.592C28.4336 5.736 27.8576 5.968 27.2016 6.288L26.9376 3.864C28.3936 3.16 29.8496 2.808 31.3056 2.808C32.7136 2.808 33.7856 3.192 34.5216 3.96C35.2736 4.728 35.6496 5.952 35.6496 7.632V10.872C35.6496 11.48 35.6736 11.92 35.7216 12.192C35.7856 12.448 35.8816 12.616 36.0096 12.696C36.1536 12.76 36.3856 12.792 36.7056 12.792H37.0896L36.8256 15.24H35.7456C35.0896 15.24 34.5376 15.12 34.0896 14.88C33.6416 14.624 33.2976 14.28 33.0576 13.848C32.6736 14.28 32.1456 14.624 31.4736 14.88C30.8176 15.12 30.1216 15.24 29.3856 15.24ZM30.6336 12.96C30.9376 12.96 31.2816 12.888 31.6656 12.744C32.0496 12.584 32.3856 12.368 32.6736 12.096V9.36C31.7136 9.408 30.8656 9.616 30.1296 9.984C29.3936 10.352 29.0256 10.864 29.0256 11.52C29.0256 12.016 29.1536 12.384 29.4096 12.624C29.6656 12.848 30.0736 12.96 30.6336 12.96ZM54.6107 2.808C56.2107 2.808 57.3947 3.296 58.1627 4.272C58.9467 5.232 59.3387 6.584 59.3387 8.328V15H56.3627V8.544C56.3627 7.408 56.1867 6.576 55.8347 6.048C55.4827 5.52 54.9067 5.256 54.1067 5.256C53.3227 5.256 52.7307 5.528 52.3307 6.072C51.9307 6.6 51.7307 7.352 51.7307 8.328V15H48.7547V8.544C48.7547 7.408 48.5707 6.576 48.2027 6.048C47.8347 5.52 47.2507 5.256 46.4507 5.256C45.5067 5.256 44.7307 5.6 44.1227 6.288V15H41.1467V3H43.6907L43.7867 3.96C44.8747 3.192 46.0507 2.808 47.3147 2.808C48.8507 2.808 49.9947 3.36 50.7467 4.464C51.1627 3.936 51.7067 3.528 52.3787 3.24C53.0507 2.952 53.7947 2.808 54.6107 2.808Z" fill="white"/>
<path d="M64.1181 11.736H67.2381V15H64.1181V11.736Z" fill="#0AB3E4"/>
</svg>
